<svg width="242" height="133" viewBox="0 0 242 133" fill="none" xmlns="http://www.w3.org/2000/svg">
<path d="M87.0281 47.75H81.0281V53.75H87.0281V47.75Z" fill="#C4CEDD"/>
<path d="M98.0281 47.75H92.0281V53.75H98.0281V47.75Z" fill="#C4CEDD"/>
<path d="M87.0281 36.75H81.0281V42.75H87.0281V36.75Z" fill="#C4CEDD"/>
<path d="M87.0281 58.75H81.0281V64.75H87.0281V58.75Z" fill="#C4CEDD"/>
<path d="M29.0281 58.75H23.0281V64.75H29.0281V58.75Z" fill="#C4CEDD"/>
<path d="M98.0281 58.75H92.0281V64.75H98.0281V58.75Z" fill="#C4CEDD"/>
<path d="M77.5281 8.53058V68.4426C86.865 72.0529 95.04 77.8257 101.521 85.0734L101.528 36.218C101.528 22.1433 91.0771 10.4635 77.5281 8.53058ZM69.5281 0.25H73.5601C93.425 0.25 109.528 16.353 109.528 36.218L109.516 126.25C109.291 101.394 92.4319 80.524 69.5281 74.216V0.25Z" fill="#3B98EE"/>
<path d="M8.53491 85.0731C15.0161 77.8254 23.1909 72.0531 32.5281 68.4426V9.26233C18.7417 12.8235 8.52808 25.3663 8.52808 40.2488L8.53491 85.0731ZM0.541016 126.25H0.528076V40.25C0.528076 18.159 18.437 0.25 40.5281 0.25V74.216C17.625 80.524 0.764893 101.394 0.541016 126.25Z" fill="#3B98EE"/>
<path d="M73.0281 67.324V88.75C73.0281 110.841 86.9371 128.75 109.028 128.75H109.528" stroke="#3B98EE" stroke-width="8" stroke-miterlimit="10"/>
<path d="M36.5281 71.25C49.1051 67.4368 62.5543 67.6114 75.0281 71.75" stroke="#3B98EE" stroke-width="8" stroke-miterlimit="10"/>
<path d="M175.67 80.4C173.097 80.3123 170.594 81.2434 168.704 82.991C167.939 83.7423 167.332 84.6384 166.917 85.627C166.503 86.6156 166.289 87.6769 166.289 88.749C166.289 89.821 166.503 90.8823 166.917 91.8709C167.332 92.8595 167.939 93.7556 168.704 94.507C170.647 96.1788 173.125 97.0982 175.688 97.0982C178.25 97.0982 180.728 96.1788 182.671 94.507C183.436 93.7556 184.043 92.8595 184.458 91.8709C184.872 90.8823 185.086 89.821 185.086 88.749C185.086 87.6769 184.872 86.6156 184.458 85.627C184.043 84.6384 183.436 83.7423 182.671 82.991C180.766 81.2453 178.253 80.3152 175.67 80.4ZM178.19 91.2169C177.864 91.5487 177.475 91.8122 177.045 91.992C176.616 92.1718 176.155 92.2645 175.69 92.2645C175.225 92.2645 174.764 92.1718 174.335 91.992C173.906 91.8122 173.516 91.5487 173.19 91.2169C172.847 90.8926 172.574 90.5018 172.388 90.0685C172.201 89.6351 172.105 89.1682 172.105 88.6964C172.105 88.2246 172.201 87.7578 172.388 87.3244C172.574 86.891 172.847 86.5002 173.19 86.176C173.86 85.5264 174.757 85.1631 175.69 85.1631C176.623 85.1631 177.52 85.5264 178.19 86.176C178.861 86.8603 179.248 87.7729 179.275 88.731C179.271 89.1968 179.173 89.6571 178.987 90.084C178.8 90.511 178.529 90.8957 178.19 91.215V91.2169Z" fill="#33424B"/>
<path d="M199.5 89.675C199.527 90.078 199.47 90.4824 199.333 90.8621C199.195 91.2418 198.979 91.5885 198.7 91.8801C198.431 92.1228 198.116 92.3072 197.772 92.4217C197.429 92.5362 197.065 92.5781 196.705 92.545C196.001 92.5917 195.304 92.3802 194.745 91.9501C194.454 91.6503 194.229 91.2931 194.084 90.9014C193.939 90.5096 193.878 90.0919 193.904 89.675V80.9241H188.304V90.6891C188.255 91.4468 188.36 92.2064 188.613 92.9224C188.865 93.6384 189.26 94.2958 189.774 94.855C191.63 96.855 194.5 97.0961 196.845 97.0961C198.98 97.0961 201.676 96.8861 203.601 94.8911C204.137 94.3392 204.549 93.6786 204.807 92.954C205.066 92.2294 205.166 91.4577 205.101 90.691V80.9261H199.501L199.5 89.675Z" fill="#33424B"/>
<path d="M218.125 86.9089L217.11 86.629C216.235 86.384 215.78 86.384 215.255 86.174C215.064 86.1202 214.896 86.0057 214.776 85.8478C214.656 85.6899 214.591 85.4973 214.59 85.299C214.589 85.137 214.634 84.9781 214.721 84.8415C214.808 84.7049 214.933 84.5963 215.08 84.5289C215.473 84.302 215.922 84.1927 216.375 84.2139C217.396 84.2737 218.395 84.5355 219.315 84.984L221.206 81.4139C219.622 80.7453 217.92 80.3999 216.2 80.398C214.159 80.2799 212.152 80.9577 210.6 82.2889C209.646 83.3294 209.121 84.6923 209.13 86.1039C209.099 87.1026 209.464 88.0731 210.145 88.804C210.892 89.5306 211.846 90.0075 212.875 90.1689L214.345 90.5189C214.871 90.5909 215.374 90.7824 215.815 91.0789C215.914 91.1649 215.991 91.2733 216.04 91.395C216.089 91.5167 216.108 91.6483 216.096 91.7789C216.108 91.9149 216.089 92.0518 216.04 92.1793C215.992 92.3068 215.915 92.4216 215.815 92.515C215.394 92.8059 214.891 92.9532 214.38 92.9349C213.641 92.9174 212.91 92.7875 212.21 92.5499C211.407 92.2857 210.651 91.8959 209.97 91.395L207.975 95.28C209.855 96.4832 212.043 97.1157 214.275 97.101C215.575 97.101 218.23 96.96 220.051 95.14C220.567 94.636 220.974 94.0306 221.245 93.3621C221.516 92.6935 221.645 91.9761 221.626 91.2549C221.651 90.1011 221.224 88.9833 220.436 88.14C219.755 87.58 218.97 87.1615 218.125 86.9089Z" fill="#33424B"/>
<path d="M241.085 89.185C241.148 87.9759 240.96 86.7668 240.532 85.6341C240.105 84.5013 239.447 83.4696 238.6 82.604C236.943 81.1432 234.786 80.3784 232.579 80.469C231.414 80.4051 230.248 80.5734 229.148 80.9639C228.049 81.3544 227.038 81.9595 226.174 82.7441C225.398 83.5456 224.791 84.4945 224.388 85.5346C223.985 86.5748 223.795 87.6851 223.828 88.8C223.801 89.8901 223.991 90.9747 224.388 91.9903C224.785 93.006 225.38 93.9323 226.139 94.7151C227.004 95.5243 228.023 96.152 229.136 96.5609C230.248 96.9699 231.43 97.1518 232.614 97.096C236.014 97.096 237.83 96.045 238.985 94.925C239.894 94.0419 240.547 92.9292 240.875 91.705H235.52C235.298 92.1397 234.958 92.5034 234.54 92.755C233.97 93.023 233.35 93.1662 232.72 93.175C232.303 93.2066 231.884 93.1548 231.487 93.0226C231.09 92.8904 230.724 92.6805 230.409 92.4051C229.773 91.6788 229.424 90.7447 229.429 89.779H241.085V89.185ZM229.6 86.56C229.706 85.9283 229.998 85.3427 230.44 84.8791C230.74 84.5887 231.098 84.3641 231.49 84.2195C231.881 84.0749 232.299 84.0134 232.716 84.039C233.566 84.0072 234.394 84.3086 235.025 84.8791C235.469 85.3509 235.783 85.9302 235.935 86.56H229.6Z" fill="#33424B"/>
<path d="M156.589 81.414C155.175 80.9232 153.686 80.68 152.189 80.695C150.626 80.6631 149.072 80.9369 147.614 81.501V80.794H147.586V70.25H141.586V97.25H147.919V91.267C147.919 89.967 147.884 88.257 149.284 87.031C150.081 86.3578 151.096 85.9973 152.139 86.0168C153.182 86.0363 154.183 86.4345 154.954 87.137C155.391 87.6222 155.721 88.1926 155.926 88.8123C156.131 89.4319 156.205 90.0873 156.144 90.737V97.245H162.586V70.245H156.586L156.589 81.414Z" fill="#33424B"/>
<path d="M160.617 72H158.617V74H160.617V72Z" fill="#C4CEDD"/>
<path d="M160.617 75H158.617V77H160.617V75Z" fill="#C4CEDD"/>
<path d="M160.617 78H158.617V80H160.617V78Z" fill="#C4CEDD"/>
<path d="M145.617 72H143.617V74H145.617V72Z" fill="#C4CEDD"/>
<path d="M145.617 75H143.617V77H145.617V75Z" fill="#C4CEDD"/>
<path d="M145.617 78H143.617V80H145.617V78Z" fill="#C4CEDD"/>
<path d="M145.124 43.478C142.881 45.7862 141.615 48.8706 141.589 52.089C141.616 55.2763 142.884 58.3275 145.124 60.595C147.554 62.9088 150.801 64.1671 154.155 64.095C155.962 64.0421 157.743 63.65 159.405 62.939V55.764C158.758 56.5355 157.949 57.155 157.036 57.5784C156.122 58.0019 155.127 58.2189 154.12 58.214C152.525 58.2265 150.98 57.6533 149.779 56.603C148.572 55.3964 147.892 53.76 147.89 52.053C147.88 51.1563 148.055 50.2672 148.404 49.4412C148.754 48.6153 149.269 47.8703 149.92 47.253C151.064 46.2092 152.572 45.6559 154.12 45.712C155.14 45.6936 156.149 45.9154 157.067 46.3594C157.985 46.8034 158.786 47.4572 159.405 48.268V41.022C157.68 40.2744 155.825 39.8702 153.945 39.832C152.307 39.8262 150.683 40.1455 149.169 40.7714C147.655 41.3972 146.28 42.3172 145.124 43.478Z" fill="#33424B"/>
<path d="M183.344 56.675C183.371 57.078 183.315 57.4824 183.177 57.8621C183.039 58.2418 182.823 58.5885 182.544 58.8801C182.275 59.1234 181.958 59.3081 181.614 59.4226C181.269 59.5371 180.905 59.5788 180.544 59.545C179.84 59.5917 179.143 59.3802 178.584 58.9501C178.293 58.6503 178.068 58.2931 177.923 57.9014C177.778 57.5096 177.717 57.0919 177.743 56.675V47.9241H172.143V57.6891C172.094 58.4468 172.199 59.2064 172.452 59.9224C172.704 60.6384 173.099 61.2958 173.613 61.855C175.469 63.855 178.339 64.0961 180.684 64.0961C182.819 64.0961 185.515 63.8861 187.439 61.8911C187.976 61.3397 188.388 60.6794 188.648 59.9547C188.908 59.2301 189.009 58.4581 188.944 57.691V47.9261H183.344V56.675Z" fill="#33424B"/>
<path d="M168.565 38.053H162.964V63.571H168.565V38.053Z" fill="#33424B"/>
<path d="M203.05 47.4C202.174 47.39 201.307 47.5658 200.504 47.9159C199.702 48.266 198.982 48.7824 198.394 49.431V38.053H192.794V63.57H198.394V61.855C198.948 62.5763 199.665 63.1556 200.486 63.5453C201.308 63.9349 202.21 64.1237 203.119 64.096C204.135 64.1257 205.147 63.9486 206.092 63.5754C207.038 63.2022 207.897 62.6407 208.619 61.925C209.435 61.1078 210.078 60.1353 210.511 59.065C210.944 57.9947 211.158 56.8484 211.14 55.694C211.155 54.5422 210.936 53.3994 210.497 52.3347C210.057 51.2699 209.407 50.3053 208.584 49.499C207.075 48.1176 205.095 47.3665 203.05 47.4ZM204.31 58.287C203.987 58.6188 203.6 58.8827 203.173 59.063C202.746 59.2434 202.287 59.3365 201.824 59.337C200.933 59.3129 200.079 58.9787 199.409 58.392C199.043 58.0503 198.749 57.6388 198.545 57.1818C198.341 56.7248 198.23 56.2315 198.219 55.731C198.271 54.7957 198.641 53.9064 199.269 53.211C199.937 52.5447 200.839 52.1676 201.782 52.1611C202.725 52.1545 203.633 52.5191 204.31 53.176C205.002 53.8897 205.39 54.8432 205.395 55.837C205.368 56.7637 204.979 57.6428 204.31 58.285V58.287Z" fill="#33424B"/>
<path d="M166.764 40H164.764V42H166.764V40Z" fill="#C4CEDD"/>
<path d="M166.764 43H164.764V45H166.764V43Z" fill="#C4CEDD"/>
<path d="M166.764 46H164.764V48H166.764V46Z" fill="#C4CEDD"/>
</svg>
